<?xml version="1.0" encoding="UTF-8"?>
<svg version="1.1" xmlns="http://www.w3.org/2000/svg" width="1920" height="1025">
<path d="M0 0 C97.35 0 194.7 0 295 0 C302.425 14.355 302.425 14.355 310 29 C322.8138558 51.25041627 336.24223893 72.72640419 352 93 C353.09248047 94.41345703 353.09248047 94.41345703 354.20703125 95.85546875 C358.15580596 100.87905788 362.3151937 105.66953112 366.62890625 110.3828125 C368.52908799 112.48021245 370.38308391 114.60282005 372.23046875 116.74609375 C382.16455664 128.11911357 393.05387485 138.76505219 405 148 C406.16013486 148.94606034 407.31750077 149.8955224 408.47265625 150.84765625 C416.96495727 157.81874897 425.71087495 164.13513044 435 170 C435.57621094 170.36657715 436.15242188 170.7331543 436.74609375 171.11083984 C496.27238841 208.71971479 565.5076912 224.56094304 635 230 C636.27617188 230.10054687 637.55234375 230.20109375 638.8671875 230.3046875 C665.12990197 232.07701792 691.53322434 232.15368538 717.84541774 232.20060861 C721.870771 232.20883172 725.89610716 232.22244885 729.92144775 232.23532104 C736.85078502 232.25678315 743.78012428 232.27503328 750.70947647 232.29092598 C760.72742411 232.31390739 770.74535261 232.34200629 780.76328371 232.37124526 C797.02756469 232.41858114 813.29185363 232.46193426 829.55615234 232.50268555 C845.32959611 232.54221571 861.10303289 232.58368206 876.87646484 232.62768555 C877.85324079 232.63040982 878.83001673 232.63313409 879.83639194 232.63594092 C884.73793397 232.64962326 889.6394759 232.66334297 894.54101777 232.67708123 C935.02733048 232.79050997 975.5136584 232.89743429 1016 233 C1017.59288385 236.01333017 1019.18358561 239.02780717 1020.77392578 242.04248047 C1021.22057083 242.88735519 1021.66721588 243.73222992 1022.12739563 244.60270691 C1025.8712039 251.70365413 1029.41969684 258.87880669 1032.875 266.125 C1033.47232213 267.37060299 1034.06998704 268.61604165 1034.66796875 269.86132812 C1035.87403515 272.37439001 1037.07814743 274.88837118 1038.28027344 277.40332031 C1040.36341639 281.76005825 1042.45331589 286.11353056 1044.54370117 290.46679688 C1045.51570513 292.4913027 1046.48722098 294.51604294 1047.45825195 296.54101562 C1051.31186463 304.57601807 1055.18520307 312.60141209 1059.0625 320.625 C1063.67023757 330.16031809 1068.25649549 339.70557257 1072.81884766 349.26269531 C1076.80173185 357.59963894 1080.81830404 365.92020857 1084.83837891 374.23925781 C1089.3936701 383.6662142 1093.93204401 393.10114971 1098.45849609 402.54199219 C1102.01470764 409.95576919 1105.58649485 417.36194087 1109.16409302 424.76541138 C1111.217735 429.01619008 1113.26892691 433.2681516 1115.3203125 437.52001953 C1116.41579636 439.78964554 1117.5121112 442.0588707 1118.609375 444.32763672 C1120.09683651 447.40444711 1121.58017405 450.48321285 1123.0625 453.5625 C1123.49119385 454.44695801 1123.9198877 455.33141602 1124.36157227 456.24267578 C1126.59176208 460.88629833 1128.67944818 465.56379124 1130.65014648 470.32397461 C1131.09253159 471.39095078 1131.53491669 472.45792694 1131.9907074 473.55723572 C1132.32377396 474.36334793 1132.65684052 475.16946014 1133 476 C1087.86996828 476.03430377 1042.73993507 476.06613601 997.6098938 476.08468628 C996.93987568 476.08496239 996.26985757 476.08523851 995.57953588 476.08552299 C981.01141576 476.09151152 966.44329551 476.09705149 951.87517505 476.10213066 C944.72895782 476.10462491 937.58274062 476.10721807 930.43652344 476.10986328 C929.72546263 476.1101248 929.01440183 476.11038632 928.28179372 476.11065576 C905.31503332 476.11914884 882.34828289 476.13414905 859.3815285 476.15259444 C835.7417455 476.17154548 812.101968 476.18379064 788.46217754 476.18782998 C773.25414394 476.19044248 758.04613463 476.19873063 742.83810957 476.21583293 C732.83797739 476.22649801 722.83785978 476.22957937 712.83772235 476.22700275 C707.08933878 476.22573609 701.34100486 476.22751819 695.59263039 476.23841095 C662.06197884 476.29878319 628.63862059 475.58973417 595.25 472.25 C594.40620789 472.16763092 593.56241577 472.08526184 592.6930542 472.00039673 C512.95018003 464.1571211 435.20422987 445.75623853 324.21630859 395.20751953 C322.0619629 394.03375947 319.9005474 392.87392998 317.73828125 391.71484375 C296.98934829 380.49005 277.09197237 367.84286043 258 354 C256.80020508 353.13810059 256.80020508 353.13810059 255.57617188 352.25878906 C244.00606954 343.94074837 232.88066346 335.19903276 222 326 C221.37754395 325.47664063 220.75508789 324.95328125 220.11376953 324.4140625 C208.26151699 314.43854848 196.86048657 304.05139356 186 293 C182.80590106 289.79420106 179.5950258 286.60561506 176.3828125 283.41796875 C174.6301396 281.67454827 172.87753744 279.93105665 171.125 278.1875 C170.25230469 277.32318359 169.37960937 276.45886719 168.48046875 275.56835938 C163.437223 270.5440732 158.60819692 265.4249591 154 260 C153.06188362 258.91737419 152.12311134 257.83531629 151.18359375 256.75390625 C139.49463354 243.19690514 128.07439048 229.47186095 117.48876953 215.03027344 C116.49828188 213.67951986 115.50447431 212.33119431 114.50732422 210.98535156 C72.80714812 154.69348218 38.67980876 92.27764863 11 28 C10.46427913 26.76086758 9.92846984 25.52177339 9.39257812 24.28271484 C7.81487146 20.62995432 6.24892428 16.97225405 4.6875 13.3125 C4.2123999 12.2002002 3.7372998 11.08790039 3.24780273 9.94189453 C2.60500366 8.41798096 2.60500366 8.41798096 1.94921875 6.86328125 C1.57112061 5.96907471 1.19302246 5.07486816 0.8034668 4.15356445 C0 2 0 2 0 0 Z " fill="#000000" transform="translate(628,0)"/>
<path d="M0 0 C44.93935788 -0.03430413 89.87871724 -0.06613633 134.81808472 -0.08468628 C135.48528336 -0.08496239 136.15248199 -0.08523851 136.83989877 -0.08552299 C151.34675249 -0.09151153 165.85360635 -0.09705151 180.36046041 -0.10213066 C187.47663509 -0.10462491 194.59280974 -0.10721807 201.70898438 -0.10986328 C202.4170555 -0.1101248 203.12512662 -0.11038632 203.85465444 -0.11065576 C226.72441124 -0.11914867 249.59415804 -0.13414876 272.4639088 -0.15259444 C296.0040553 -0.17154594 319.54419627 -0.18379075 343.08435026 -0.18782998 C358.22814546 -0.19044239 373.37191337 -0.19872993 388.51569955 -0.21583293 C398.47378217 -0.2264986 408.43185017 -0.22957924 418.38993807 -0.22700275 C424.11401852 -0.22573618 429.83804912 -0.22751712 435.56212044 -0.23841095 C511.90103306 -0.37628974 587.84223287 6.18427671 662 25 C663.74990234 25.44061768 663.74990234 25.44061768 665.53515625 25.89013672 C753.59981126 48.25070164 837.09503272 88.73340648 907 147 C907.57975586 147.48065918 908.15951172 147.96131836 908.75683594 148.45654297 C915.69862753 154.21882671 922.44467574 160.15253721 929.05078125 166.296875 C930.55701367 167.69498614 932.07429122 169.0631868 933.63989258 170.39477539 C940.15595492 175.93728276 946.14753421 181.99665153 952.18188477 188.05151367 C954.05829475 189.93328274 955.93998969 191.80964738 957.82226562 193.68554688 C963.76307506 199.62306111 969.56305893 205.59193478 975 212 C976.61967817 213.77570221 978.24411718 215.54708307 979.875 217.3125 C984.79612557 222.71463785 989.41603254 228.31154904 994 234 C995.04459635 235.27684123 996.09023455 236.55283057 997.13671875 237.828125 C1003.62453644 245.74522024 1009.95458967 253.73692659 1016 262 C1016.65476318 262.88171875 1016.65476318 262.88171875 1017.32275391 263.78125 C1058.1656134 318.78315529 1091.33836891 379.39062543 1119.0625 441.9375 C1119.37069672 442.63053223 1119.67889343 443.32356445 1119.99642944 444.03759766 C1120.89001079 446.05256961 1121.77634078 448.07057155 1122.66015625 450.08984375 C1123.41244507 451.80482056 1123.41244507 451.80482056 1124.17993164 453.55444336 C1126.94455816 460.30710388 1129.43796353 467.16790273 1132 474 C1034.65 474 937.3 474 837 474 C833.7 467.73 830.4 461.46 827 455 C802.8775835 410.44791578 773.28985595 365.80512244 734 333 C733.47760742 332.55849609 732.95521484 332.11699219 732.41699219 331.66210938 C670.98306736 279.89614069 594.57857462 255.81131462 515.625 247.75 C514.81132965 247.66691589 513.9976593 247.58383179 513.15933228 247.49822998 C510.78639741 247.25911262 508.41295121 247.02631706 506.0390625 246.796875 C505.36382034 246.73043793 504.68857819 246.66400085 503.99287415 246.59555054 C491.09289292 245.38686292 478.14402271 244.79188177 465.19506836 244.45727539 C464.40267694 244.43652454 463.61028553 244.4157737 462.79388225 244.39439404 C433.49476903 243.65865292 404.17344861 243.77136605 374.86688126 243.70291793 C365.87058315 243.68173197 356.87430219 243.65535218 347.87801873 243.62875474 C331.84389929 243.58148152 315.80977189 243.53811275 299.77563477 243.49731445 C284.23038112 243.45775148 268.68513443 243.41627807 253.13989258 243.37231445 C251.69462106 243.36822804 251.69462106 243.36822804 250.22015215 243.36405908 C245.38489957 243.35037621 240.54964711 243.33665661 235.71439469 243.32291877 C195.80961111 243.20958923 155.90481242 243.10264446 116 243 C113.40233424 237.67263386 110.80518361 232.34501699 108.20848083 227.0171814 C107.32765639 225.21010794 106.44669867 223.40309945 105.56559753 221.59616089 C99.41614445 208.98472971 93.31133241 196.35408708 87.28027344 183.68554688 C84.92474779 178.74451291 82.55616286 173.80974642 80.1875 168.875 C79.6932251 167.8452002 79.1989502 166.81540039 78.68969727 165.75439453 C74.50805538 157.04761635 70.30884525 148.3493583 66.10733032 139.65216064 C59.56032864 126.09904894 53.04835113 112.52922498 46.54101562 98.95703125 C40.71007108 86.79690391 34.86616426 74.64317266 29 62.5 C23.12276285 50.33322928 17.2610561 38.15913145 11.42578125 25.97216797 C9.96564204 22.92837778 8.49883549 19.88786221 7.03125 16.84765625 C6.10404679 14.91932847 5.17695815 12.9909456 4.25 11.0625 C3.81913086 10.17369141 3.38826172 9.28488281 2.94433594 8.36914062 C2.36087402 7.15194336 2.36087402 7.15194336 1.765625 5.91015625 C1.42305664 5.19996338 1.08048828 4.48977051 0.72753906 3.75805664 C0 2 0 2 0 0 Z " fill="#000000" transform="translate(159,551)"/>
<path d="M0 0 C64.35939478 -0.30852143 128.71887719 -0.59471071 193.07881165 -0.76217651 C194.03140922 -0.76466154 194.98400679 -0.76714657 195.96547096 -0.7697069 C216.66815408 -0.82357967 237.37084504 -0.87344288 258.0735477 -0.91917593 C268.22619825 -0.94162792 278.37884668 -0.9649659 288.53149414 -0.98876953 C290.04695709 -0.99230003 290.04695709 -0.99230003 291.59303546 -0.99590184 C324.33819264 -1.07260177 357.08279059 -1.20780117 389.827609 -1.37334997 C423.47818376 -1.54316897 457.12844907 -1.65394515 490.77944509 -1.69046982 C495.53275659 -1.69565658 500.28606703 -1.70151804 505.03937721 -1.70779037 C505.97489359 -1.70900399 506.91040997 -1.7102176 507.87427532 -1.71146799 C522.93173439 -1.7327365 537.98823642 -1.81621247 553.04530524 -1.92297661 C568.18421048 -2.02899258 583.32216734 -2.06941343 598.46143075 -2.04302479 C607.45607091 -2.02933632 616.44723938 -2.06579003 625.44125222 -2.17435578 C631.4532119 -2.24196454 637.46290448 -2.24388046 643.47502205 -2.19297264 C646.90013426 -2.16583452 650.3186992 -2.16669068 653.74310216 -2.24789728 C673.49359049 -2.63458362 673.49359049 -2.63458362 679.300707 1.72866431 C683.29140701 5.88905819 686.05291083 10.54701718 688.68659482 15.64182736 C690.91917441 19.65034521 693.77914036 23.16431814 696.625 26.75 C697.71111653 28.15640952 698.79594302 29.56381719 699.87890625 30.97265625 C700.91917615 32.31517754 701.95953752 33.65762795 703 35 C703.71518799 35.9278833 703.71518799 35.9278833 704.44482422 36.87451172 C710.88341236 45.22416837 717.5843674 53.29830331 724.49707031 61.25878906 C725.97629573 62.97253755 727.4397591 64.69843278 728.8984375 66.4296875 C741.50247235 81.36693636 755.14026893 95.23442728 768.9375 109.0625 C769.61930328 109.74698212 770.30110657 110.43146423 771.00357056 111.13668823 C781.20752297 121.38367933 781.20752297 121.38367933 792 131 C793.22719843 132.06808987 794.45244086 133.13843098 795.67578125 134.2109375 C846.55117324 178.53111148 902.95285172 213.42926152 964 242 C964 242.33 964 242.66 964 243 C684.16 243 404.32 243 116 243 C106.77417919 224.54835839 106.77417919 224.54835839 103.01171875 216.83984375 C102.58658997 215.97012436 102.16146118 215.10040497 101.72344971 214.20433044 C100.37719398 211.44917776 99.0322089 208.69340793 97.6875 205.9375 C97.22401154 204.98812561 96.76052307 204.03875122 96.2829895 203.06060791 C89.87925482 189.94168387 83.51536073 176.8058156 77.24804688 163.62109375 C74.90514965 158.70064294 72.54598246 153.78799463 70.1875 148.875 C69.69378906 147.84632813 69.20007813 146.81765625 68.69140625 145.7578125 C64.48766496 137.00452086 60.26449236 128.26065588 56.03994751 119.51739502 C51.23545642 109.57260185 46.45964669 99.61438819 41.69921875 89.6484375 C34.18881808 73.92619049 26.63141799 58.22665238 19.05001831 42.5385437 C14.46756638 33.05520927 9.90904185 23.56066425 5.37475586 14.05419922 C4.95718018 13.17908691 4.53960449 12.30397461 4.109375 11.40234375 C3.74811523 10.64429443 3.38685547 9.88624512 3.01464844 9.10522461 C2.33294751 7.69081001 1.61651213 6.29266506 0.86816406 4.91235352 C0 3 0 3 0 0 Z " fill="#000000" transform="translate(0,233)"/>
<path d="M0 0 C279.84 0 559.68 0 848 0 C872.5723869 50.26170047 872.5723869 50.26170047 879.75927734 65.39355469 C882.13933029 70.39344552 884.53972589 75.3835902 886.9375 80.375 C887.94923966 82.48176079 888.96095844 84.58853161 889.97265625 86.6953125 C890.4742627 87.73977539 890.97586914 88.78423828 891.49267578 89.86035156 C892.97385643 92.94554482 894.45391691 96.03127276 895.93359375 99.1171875 C901.59192091 110.91588233 907.26911584 122.70529907 912.96234131 134.48718262 C917.26962351 143.4020164 921.55349779 152.32772694 925.81884766 161.26269531 C929.50421656 168.97688213 933.21795727 176.6772516 936.9375 184.375 C942.86640883 196.64692328 948.78866443 208.92196324 954.66894531 221.21728516 C955.54223311 223.04298843 956.41654759 224.86820104 957.29199219 226.69287109 C958.44871301 229.10584026 959.60029242 231.52118312 960.75 233.9375 C961.08563965 234.63584961 961.4212793 235.33419922 961.76708984 236.05371094 C964 240.77017632 964 240.77017632 964 243 C899.62644689 243.27422857 835.25282456 243.52862077 770.87884521 243.67749023 C769.44974177 243.6808036 769.44974177 243.6808036 767.99176754 243.68418391 C747.28631456 243.7320703 726.58085539 243.77639323 705.87538697 243.81704527 C695.72144801 243.83700268 685.56751074 243.85774754 675.41357422 243.87890625 C674.40313482 243.88099839 673.39269543 243.88309054 672.35163666 243.88524608 C639.59955264 243.95342934 606.84791024 244.07361092 574.09609378 244.22075553 C540.4396386 244.37168981 506.78342782 244.47016984 473.12663992 244.50263984 C468.37300784 244.50725033 463.61937659 244.51246051 458.86574554 244.51803589 C457.93016175 244.51911466 456.99457795 244.52019342 456.03064312 244.52130488 C440.96936172 244.54021353 425.90883596 244.61442385 410.84786272 244.70931254 C395.70677567 244.80352589 380.56643778 244.83948414 365.42506787 244.81602204 C356.42828312 244.80385057 347.43423989 244.83629806 338.43795024 244.93276069 C332.425793 244.99282182 326.41542778 244.99458294 320.40314614 244.94930902 C316.97752457 244.92517203 313.55707759 244.92602835 310.13201466 244.99813092 C290.32704994 245.34242568 290.32704994 245.34242568 284.75671118 241.42060161 C281.00351813 237.71782127 278.37611516 233.55805902 275.99024579 228.88308036 C274.65995208 226.35335493 273.0013555 224.13732585 271.2578125 221.87890625 C270.73662842 221.16025391 270.21544434 220.44160156 269.6784668 219.70117188 C262.96203762 210.45460272 255.87535267 201.58771719 248.53076172 192.83496094 C246.40682437 190.28894609 244.33059241 187.70654348 242.25 185.125 C238.4326066 180.44904787 234.41346166 175.98545908 230.328125 171.54296875 C228.39305738 169.42932946 226.49791703 167.29340152 224.625 165.125 C215.54194396 154.74141548 205.99019099 144.88657975 196.25 135.125 C195.70684143 134.57925323 195.16368286 134.03350647 194.60406494 133.47122192 C189.11922396 127.96580942 183.62487872 122.51915244 177.71240234 117.46728516 C175.13499707 115.25881557 172.67110798 112.93840268 170.1875 110.625 C165.59440625 106.38689299 160.88729778 102.34399807 156.015625 98.42578125 C153.80357784 96.64640135 151.60793161 94.85369447 149.421875 93.04296875 C139.23202925 84.6293702 128.73118012 76.70905924 118 69 C117.17951172 68.41041504 116.35902344 67.82083008 115.51367188 67.21337891 C103.61314315 58.69738288 91.49393664 50.6188564 79 43 C78.15775879 42.48614746 77.31551758 41.97229492 76.44775391 41.44287109 C51.71674509 26.43437573 26.1113826 13.39281956 0 1 C0 0.67 0 0.34 0 0 Z " fill="#000000" transform="translate(956,551)"/>
</svg>
